<?xml version="1.0" standalone="no"?>
<!DOCTYPE svg PUBLIC "-//W3C//DTD SVG 20010904//EN"
 "http://www.w3.org/TR/2001/REC-SVG-20010904/DTD/svg10.dtd">
<svg version="1.0" xmlns="http://www.w3.org/2000/svg"
 width="186.000000pt" height="186.000000pt" viewBox="0 0 186.000000 186.000000"
 preserveAspectRatio="xMidYMid meet">
<metadata>
Created by potrace 1.14, written by Peter Selinger 2001-2017
</metadata>
<g transform="translate(0.000000,186.000000) scale(0.100000,-0.100000)"
fill="#000000" stroke="none">
<path d="M35 1257 c-3 -6 -4 -161 -3 -342 l3 -330 148 -3 147 -3 0 106 0 105
38 0 c36 0 38 -2 102 -105 l65 -104 408 -1 407 0 0 205 0 205 85 0 85 0 2
-202 3 -203 145 0 145 0 3 343 2 342 -642 0 -643 0 -65 -105 c-64 -103 -65
-105 -102 -105 l-38 0 0 105 0 105 -145 0 c-108 0 -147 -3 -150 -13z m215
-167 l0 -101 102 3 101 3 60 98 60 97 583 0 584 0 0 -265 0 -265 -70 0 -70 0
0 205 0 205 -160 0 -160 0 0 -205 0 -205 -353 0 -354 0 -62 100 -62 100 -100
0 -99 0 0 -100 0 -100 -70 0 -70 0 0 265 0 265 70 0 70 0 0 -100z"/>
<path d="M140 925 l0 -235 40 0 40 0 0 100 0 100 123 0 124 0 62 -100 62 -100
44 0 44 0 -70 110 c-38 60 -72 116 -75 124 -3 8 24 61 60 119 36 57 66 108 66
111 0 4 -17 6 -37 4 -35 -3 -40 -8 -96 -100 l-60 -98 -123 0 -124 0 0 100 0
100 -40 0 -40 0 0 -235z"/>
<path d="M700 1020 l0 -140 230 0 230 0 0 -65 0 -65 -230 0 -230 0 0 -30 0
-30 275 0 275 0 0 205 0 205 190 0 190 0 0 -205 0 -205 40 0 40 0 0 235 0 235
-505 0 -505 0 0 -140z m460 0 l0 -80 -190 0 -190 0 0 80 0 80 190 0 190 0 0
-80z"/>
<path d="M810 1020 l0 -50 160 0 160 0 0 50 0 50 -160 0 -160 0 0 -50z"/>
<path d="M624 1034 c-16 -27 -38 -61 -47 -75 -17 -26 -17 -27 33 -102 l50 -77
235 0 235 0 0 35 0 35 -235 0 -234 0 -3 117 -3 116 -31 -49z"/>
</g>
</svg>
